<?xml version="1.0" encoding="UTF-8" standalone="no"?>
<!-- Created with Inkscape (http://www.inkscape.org/) -->

<svg
   version="1.1"
   id="svg2"
   width="282.04251"
   height="61.723675"
   viewBox="0 0 1015.3531 222.20523"
   sodipodi:docname="logo-special-light.svg"
   inkscape:export-filename="/home/sia/work/ADCP/Noise-Estimation/code/imate/docs/source/_static/images/logo.png"
   inkscape:export-xdpi="81.8368"
   inkscape:export-ydpi="81.8368"
   inkscape:version="1.1.2 (0a00cf5339, 2022-02-04)"
   xmlns:inkscape="http://www.inkscape.org/namespaces/inkscape"
   xmlns:sodipodi="http://sodipodi.sourceforge.net/DTD/sodipodi-0.dtd"
   xmlns="http://www.w3.org/2000/svg"
   xmlns:svg="http://www.w3.org/2000/svg">
  <sodipodi:namedview
     id="namedview6"
     pagecolor="#ffffff"
     bordercolor="#666666"
     borderopacity="1.0"
     inkscape:pageshadow="2"
     inkscape:pageopacity="0.0"
     inkscape:pagecheckerboard="0"
     showgrid="false"
     fit-margin-top="0"
     fit-margin-left="0"
     fit-margin-right="0"
     fit-margin-bottom="0"
     inkscape:zoom="32.286672"
     inkscape:cx="19.32686"
     inkscape:cy="11.304974"
     inkscape:window-width="1920"
     inkscape:window-height="1006"
     inkscape:window-x="0"
     inkscape:window-y="25"
     inkscape:window-maximized="1"
     inkscape:current-layer="svg2" />
  <defs
     id="defs6" />
  <rect
     style="fill:none;fill-opacity:0.315116;stroke:none;stroke-width:3.6;stroke-opacity:1"
     id="rect9257"
     width="1015.353"
     height="222.20523"
     x="0"
     y="-3.5527137e-15" />
  <path
     id="text1836"
     style="font-size:196.659px;line-height:1.25;font-family:sans-serif;fill:#00809a;fill-opacity:1;stroke-width:14.7494"
     sodipodi:type="inkscape:offset"
     inkscape:radius="-0.20385809"
     inkscape:original="M 59.673828 293.61523 C 54.940462 293.61523 50.145708 293.84358 45.289062 294.29688 C 40.417404 294.75157 35.699891 295.49787 31.140625 296.53906 C 31.136873 296.53995 31.13347 296.5413 31.134766 296.54102 C 26.613549 297.52442 22.339623 298.90153 18.322266 300.67773 C 18.321715 300.67797 18.309999 300.68319 18.306641 300.68555 C 18.303282 300.6879 18.301237 300.68908 18.300781 300.68945 C 14.250711 302.41814 10.665444 304.59237 7.5722656 307.21484 C 7.567498 307.21889 7.5633206 307.22247 7.5585938 307.22656 C 4.4934079 309.88306 2.0577036 313.07275 0.28710938 316.74609 C 0.2869135 316.74649 0.28621536 316.74785 0.28515625 316.75 C -1.5192719 320.42994 -2.4003906 324.63313 -2.4003906 329.2832 C -2.4003906 334.04905 -1.2974615 338.35761 0.93945312 342.0625 A 0.074773494 0.074773494 0 0 0 0.94140625 342.06641 C 0.94610838 342.07322 0.95223898 342.07919 0.95703125 342.08594 C 3.2011733 345.68907 6.1857241 348.87186 9.8710938 351.61914 C 9.8811905 351.62671 9.8920957 351.63328 9.9023438 351.64062 C 13.624206 354.29911 17.91831 356.60671 22.771484 358.57422 C 22.771484 358.57422 22.773438 358.57617 22.773438 358.57617 A 0.074773494 0.074773494 0 0 0 22.779297 358.58008 C 27.641645 360.52502 32.756292 362.27182 38.125 363.82422 C 43.467515 365.36904 48.968941 366.81531 54.628906 368.16602 C 54.63703 368.16811 54.646145 368.16989 54.654297 368.17188 A 0.074773494 0.074773494 0 0 0 54.65625 368.17188 C 60.3319 369.44729 65.812437 370.78752 71.101562 372.18945 A 0.074773494 0.074773494 0 0 0 71.105469 372.18945 C 71.112243 372.19084 71.120164 372.194 71.126953 372.19531 C 76.39612 373.52858 81.373257 374.98547 86.058594 376.56836 A 0.074773494 0.074773494 0 0 0 86.064453 376.57031 C 86.067164 376.571 86.069551 376.57159 86.072266 376.57227 C 90.766884 378.13752 94.802955 379.94466 98.179688 381.9707 C 98.18974 381.97711 98.200762 381.98402 98.210938 381.99023 A 0.074773494 0.074773494 0 0 0 98.212891 381.99023 C 101.61799 383.936 104.22032 386.17339 106.08984 388.68555 A 0.074773494 0.074773494 0 0 0 106.0918 388.6875 C 106.09784 388.69501 106.10517 388.70157 106.11133 388.70898 C 107.98044 391.14543 108.89258 393.8862 108.89258 397.17383 C 108.89258 401.3598 107.73073 404.70132 105.39062 407.49805 C 105.38585 407.50344 105.38167 407.50822 105.37695 407.51367 A 0.074773494 0.074773494 0 0 0 105.375 407.51562 C 103.04573 410.36897 99.70301 412.76255 95.246094 414.65625 C 90.758263 416.49903 85.3779 417.87523 79.101562 418.75391 C 72.799948 419.63613 65.905956 420.08008 58.425781 420.08008 C 47.847579 420.08008 37.758704 419.1275 28.15625 417.23242 A 0.074773494 0.074773494 0 0 0 28.154297 417.23242 C 18.698458 415.35356 9.7230532 411.88408 1.1914062 406.80273 C 0.9094359 406.6349 0.58202835 406.5443 0.25390625 406.54102 C -0.074215847 406.53773 -0.40222968 406.62104 -0.6875 406.7832 C -0.97277032 406.94536 -1.2138677 407.18514 -1.3789062 407.46875 C -1.5439449 407.75236 -1.6327724 408.08006 -1.6328125 408.4082 L -1.6328125 423.09961 C -1.6327319 423.48637 -1.5102632 423.873 -1.2851562 424.1875 C -1.0600493 424.502 -0.73325961 424.74239 -0.3671875 424.86719 C 8.1766923 427.77986 17.134074 430.07771 26.503906 431.75781 A 0.074773494 0.074773494 0 0 0 26.505859 431.75781 C 35.982069 433.44536 46.491657 434.28125 58.041016 434.28125 C 63.082379 434.28125 68.185751 434.05679 73.351562 433.60547 L 73.375 433.60352 C 78.629061 433.2133 83.698132 432.49974 88.578125 431.45898 A 0.074773494 0.074773494 0 0 0 88.583984 431.45703 L 88.591797 431.45508 C 93.552855 430.40983 98.20176 429.00126 102.53516 427.22852 A 0.074773494 0.074773494 0 0 0 102.54102 427.22656 C 102.54373 427.22522 102.54612 427.22402 102.54883 427.22266 L 102.55273 427.2207 C 106.98506 425.36799 110.85982 423.06901 114.1543 420.31445 A 0.074773494 0.074773494 0 0 0 114.16406 420.30859 C 114.16406 420.30859 114.16602 420.30664 114.16602 420.30664 A 0.074773494 0.074773494 0 0 0 114.16992 420.30469 C 117.55163 417.46405 120.24587 414.08896 122.21484 410.2207 L 122.2168 410.21484 C 122.21775 410.21325 122.21975 410.21254 122.2207 410.21094 A 0.074773494 0.074773494 0 0 0 122.22266 410.20508 C 124.22697 406.19645 125.20508 401.57022 125.20508 396.40625 C 125.20508 391.57715 124.06906 387.20673 121.77148 383.44141 C 119.59034 379.76344 116.59852 376.50975 112.85156 373.69727 A 0.074773494 0.074773494 0 0 0 112.83984 373.69141 L 112.83594 373.68945 C 109.17666 370.89738 104.88863 368.4923 99.980469 366.46094 L 99.976562 366.45898 A 0.074773494 0.074773494 0 0 0 99.972656 366.45703 C 95.169961 364.38039 90.052819 362.53554 84.621094 360.91797 A 0.074773494 0.074773494 0 0 0 84.617188 360.91797 L 84.613281 360.91602 L 84.609375 360.91602 C 79.263484 359.24166 73.727769 357.69677 68.001953 356.28125 A 0.074773494 0.074773494 0 0 0 68 356.2793 L 51.507812 352.15625 L 51.486328 352.15039 L 51.484375 352.15039 C 46.210765 350.75213 41.194724 349.29041 36.435547 347.76758 C 36.435376 347.76752 36.433264 347.76677 36.429688 347.76562 C 31.789426 346.19653 27.736973 344.47744 24.273438 342.62305 L 24.271484 342.62305 A 0.074773494 0.074773494 0 0 0 24.269531 342.62109 C 20.91729 340.79227 18.297842 338.7251 16.365234 336.44531 L 16.363281 336.44336 C 14.578932 334.26389 13.720703 331.84186 13.720703 328.90039 C 13.720703 325.27713 14.68104 322.31286 16.603516 319.76367 L 16.605469 319.76172 C 18.620854 317.17597 21.542436 314.9844 25.482422 313.22656 A 0.074773494 0.074773494 0 0 0 25.484375 313.22461 C 25.487636 313.22299 25.490889 313.22234 25.494141 313.2207 L 25.496094 313.21875 C 29.515749 311.39197 34.471127 310.01941 40.357422 309.14258 C 46.326055 308.263 53.152434 307.81641 60.826172 307.81641 C 67.153082 307.81641 72.889531 308.19873 78.03125 308.95117 A 0.074773494 0.074773494 0 0 0 78.035156 308.95117 C 78.041378 308.95178 78.04846 308.95258 78.054688 308.95312 C 83.242643 309.64909 87.87464 310.53302 91.945312 311.59766 C 91.945312 311.59766 91.947266 311.59766 91.947266 311.59766 A 0.074773494 0.074773494 0 0 0 91.951172 311.59961 C 96.100493 312.66838 99.755874 313.88849 102.91211 315.25 C 102.92157 315.25415 102.92993 315.25773 102.93945 315.26172 C 106.17572 316.59428 109.02431 317.86001 111.47656 319.05469 C 111.75975 319.19244 112.0781 319.2569 112.39258 319.24023 C 112.70705 319.22357 113.01811 319.12589 113.28516 318.95898 C 113.55221 318.79208 113.77495 318.55662 113.92773 318.28125 C 114.08052 318.00588 114.16183 317.69187 114.16211 317.37695 L 114.16211 303.54883 C 114.16191 303.13949 114.02369 302.73214 113.77344 302.4082 C 113.52319 302.08426 113.1636 301.84574 112.76758 301.74219 C 108.59533 300.65099 104.45656 299.62524 100.34766 298.66211 L 100.3418 298.66016 A 0.074773494 0.074773494 0 0 0 100.33594 298.6582 C 96.269604 297.69018 92.076945 296.8521 87.759766 296.14258 L 87.757812 296.14258 C 83.479084 295.36468 79.01276 294.74953 74.357422 294.29688 C 69.744493 293.84208 64.850037 293.61523 59.673828 293.61523 z M 575.13477 293.61523 C 567.15924 293.61523 559.52828 294.26336 552.24219 295.56445 C 544.95203 296.86626 538.12958 298.824 531.78711 301.43945 C 525.43941 304.05706 519.66358 307.33713 514.47266 311.2793 A 0.074773494 0.074773494 0 0 0 514.46484 311.28516 C 509.26775 315.16946 504.78017 319.72374 501.02539 324.92773 A 0.074773494 0.074773494 0 0 0 501.02344 324.92969 C 501.02071 324.93375 501.01833 324.93733 501.01562 324.94141 C 497.31277 330.16563 494.44016 336.04679 492.40234 342.55469 C 492.40098 342.5583 492.39978 342.56278 492.39844 342.56641 A 0.074773494 0.074773494 0 0 0 492.39648 342.57031 C 490.41624 349.10511 489.4375 356.23693 489.4375 363.94922 C 489.4375 371.66151 490.41624 378.79333 492.39648 385.32812 A 0.074773494 0.074773494 0 0 0 492.39844 385.33203 C 492.40045 385.33747 492.40224 385.34419 492.4043 385.34961 C 494.44229 391.85606 497.31508 397.73578 501.01758 402.95898 C 501.01976 402.96227 501.02123 402.96547 501.02344 402.96875 A 0.074773494 0.074773494 0 0 0 501.02539 402.9707 C 504.78256 408.17803 509.27114 412.76385 514.4707 416.71289 C 514.47381 416.71549 514.47735 416.72008 514.48047 416.72266 A 0.074773494 0.074773494 0 0 0 514.48242 416.72461 C 519.67135 420.59989 525.44355 423.84311 531.78711 426.45898 C 538.12958 429.07445 544.95203 431.03216 552.24219 432.33398 A 0.074773494 0.074773494 0 0 0 552.24414 432.33398 C 559.59169 433.63443 567.22273 434.28125 575.13477 434.28125 C 581.53504 434.28125 587.46647 433.96093 592.92969 433.31055 C 598.3722 432.66263 603.56404 431.75395 608.50391 430.58398 C 613.42734 429.41791 618.16053 428.0228 622.70508 426.40039 L 622.71289 426.39844 A 0.074773494 0.074773494 0 0 0 622.7207 426.39648 C 627.29771 424.7847 631.90321 423.0125 636.54102 421.08008 C 636.8791 420.93915 637.17386 420.6974 637.37695 420.39258 C 637.58005 420.08776 637.6896 419.72175 637.68945 419.35547 L 637.68945 405.04688 C 637.68926 404.71159 637.59785 404.37759 637.42578 404.08984 C 637.25371 403.80209 637.00229 403.56117 636.70703 403.40234 C 636.41177 403.24351 636.07322 403.16662 635.73828 403.18164 C 635.40335 403.19666 635.07283 403.30366 634.79297 403.48828 C 631.47458 405.67967 627.76541 407.78653 623.66602 409.80469 C 619.66606 411.74142 615.24561 413.46575 610.39844 414.97656 C 610.397 414.97692 610.39597 414.97815 610.39453 414.97852 A 0.074773494 0.074773494 0 0 0 610.38867 414.97852 C 605.62105 416.48408 600.46408 417.68315 594.91211 418.56641 A 0.074773494 0.074773494 0 0 0 594.9082 418.56641 C 589.44754 419.44515 583.62424 419.88867 577.43945 419.88867 C 564.90156 419.88867 554.09699 418.55493 545.03516 415.93164 L 545.02539 415.92969 A 0.074773494 0.074773494 0 0 0 545.02344 415.92773 C 535.93791 413.23199 528.4964 409.46217 522.64844 404.66211 C 522.64019 404.65535 522.64417 404.65959 522.64453 404.66016 L 522.64258 404.6582 C 516.85471 399.78928 512.57569 393.98141 509.74609 387.16211 L 509.74414 387.15625 A 0.074773494 0.074773494 0 0 0 509.74219 387.15039 C 509.73813 387.14063 509.73745 387.14212 509.73828 387.14453 L 509.73828 387.14258 C 506.96295 380.29044 505.56055 372.57417 505.56055 363.94922 C 505.56055 355.32357 506.96249 347.60645 509.73828 340.75391 L 509.74023 340.74805 L 509.74219 340.74609 A 0.074773494 0.074773494 0 0 0 509.74414 340.74219 C 512.57696 333.84854 516.85597 328.03894 522.64844 323.23242 A 0.074773494 0.074773494 0 0 0 522.65039 323.23047 L 522.6543 323.22852 L 522.65625 323.22656 C 528.50596 318.36353 535.94806 314.56393 545.03516 311.86914 C 554.09533 309.18232 564.89941 307.81641 577.43945 307.81641 C 583.62386 307.81641 589.41399 308.26048 594.80859 309.13867 C 600.23199 310.02156 605.29382 311.21731 609.99805 312.72266 C 610.00008 312.72334 610.00187 312.72393 610.00391 312.72461 A 0.074773494 0.074773494 0 0 0 610.00391 312.72656 C 614.78772 314.23723 619.21304 315.99328 623.28125 317.99609 C 627.38749 320.01762 631.23707 322.16094 634.82617 324.42773 C 635.10702 324.60477 635.43573 324.7051 635.76758 324.71484 C 636.09942 324.72459 636.4319 324.64462 636.72266 324.48438 C 637.01341 324.32413 637.26071 324.0846 637.42969 323.79883 C 637.59867 323.51306 637.68914 323.1816 637.68945 322.84961 L 637.68945 308.44727 C 637.6896 308.08098 637.58005 307.71498 637.37695 307.41016 C 637.17386 307.10534 636.8791 306.86358 636.54102 306.72266 C 631.90366 304.79043 627.29684 303.05023 622.71875 301.50195 A 0.074773494 0.074773494 0 0 0 622.71289 301.5 L 622.70508 301.49805 L 622.69727 301.49609 C 618.15498 299.87482 613.42466 298.4799 608.50391 297.31445 C 603.56404 296.14449 598.3722 295.23581 592.92969 294.58789 C 587.4669 293.93755 581.53543 293.61523 575.13477 293.61523 z M 790.90234 293.61523 C 779.47283 293.61523 768.64074 294.51866 758.4082 296.33203 C 748.31144 298.06869 738.78701 300.12998 729.83203 302.51367 C 729.43781 302.61865 729.0807 302.85628 728.83203 303.17969 C 728.58337 303.5031 728.44548 303.9104 728.44531 304.31836 L 728.44531 318.33789 C 728.44542 318.63994 728.51925 318.94182 728.66016 319.20898 C 728.80107 319.47615 729.0086 319.70824 729.25781 319.87891 C 729.50703 320.04957 729.79762 320.15856 730.09766 320.19336 C 730.39769 320.22815 730.70662 320.18918 730.98828 320.08008 C 735.25831 318.42304 739.49383 316.85936 743.69727 315.39453 C 747.85774 313.94467 752.2133 312.68376 756.76367 311.60938 C 756.77123 311.60753 756.77958 311.60545 756.78711 311.60352 C 761.31154 310.4724 766.19859 309.58894 771.44336 308.95703 C 776.66713 308.32767 782.48246 308.00977 788.88672 308.00977 C 793.62991 308.00977 798.34131 308.2313 803.01953 308.67383 A 0.074773494 0.074773494 0 0 0 803.02148 308.67383 C 803.0303 308.67457 803.03804 308.67517 803.04688 308.67578 C 807.76613 309.05332 812.22061 309.71197 816.41406 310.65039 C 816.4161 310.65107 816.41789 310.65167 816.41992 310.65234 C 816.41992 310.65234 816.42188 310.65234 816.42188 310.65234 A 0.074773494 0.074773494 0 0 0 816.42773 310.6543 C 820.67661 311.59155 824.59729 312.83753 828.19141 314.38672 C 828.19898 314.38993 828.20723 314.39337 828.21484 314.39648 C 831.765 315.86552 834.81868 317.71711 837.4082 319.94531 A 0.074773494 0.074773494 0 0 0 837.41016 319.94727 C 837.4169 319.95274 837.42287 319.95751 837.42969 319.96289 C 839.9927 322.10913 841.96111 324.61103 843.38281 327.51367 C 844.77788 330.36193 845.49805 333.67941 845.49805 337.54297 L 845.49805 345.89258 C 833.78956 346.58096 822.51999 347.4164 811.84766 348.45312 C 800.6745 349.4808 790.26152 350.82933 780.60938 352.50195 C 780.60938 352.50195 780.60742 352.50195 780.60742 352.50195 C 780.60742 352.50195 780.60547 352.50195 780.60547 352.50195 A 0.074773494 0.074773494 0 0 0 780.60352 352.50195 C 780.58958 352.50437 780.58858 352.50544 780.59766 352.50391 C 770.93334 354.11509 762.15587 356.11641 754.25781 358.51172 C 746.3972 360.85103 739.62662 363.75154 733.95312 367.24609 C 733.95121 367.24709 733.94949 367.24789 733.94922 367.24805 C 728.25232 370.69333 723.77335 374.81883 720.5918 379.625 A 0.074773494 0.074773494 0 0 0 720.58398 379.64258 C 717.43767 384.43528 715.86523 390.01635 715.86523 396.21289 C 715.86523 402.43452 717.21541 408.02987 719.94727 412.87891 A 0.074773494 0.074773494 0 0 0 719.94727 412.88086 C 719.94929 412.88425 719.95109 412.88724 719.95312 412.89062 C 722.66852 417.642 726.54593 421.64463 731.50195 424.85938 A 0.074773494 0.074773494 0 0 0 731.50391 424.85938 C 731.50931 424.86279 731.51409 424.86773 731.51953 424.87109 C 736.47587 428.0186 742.44328 430.3582 749.39258 431.93164 A 0.074773494 0.074773494 0 0 0 749.39648 431.93164 A 0.074773494 0.074773494 0 0 0 749.4082 431.93359 C 756.41757 433.50471 764.26222 434.28125 772.94727 434.28125 C 779.61951 434.28125 786.41685 433.86235 793.33789 433.02148 C 800.25295 432.18133 806.97863 430.98434 813.51367 429.43164 A 0.074773494 0.074773494 0 0 0 813.51758 429.42969 A 0.074773494 0.074773494 0 0 0 813.5293 429.42578 C 820.11602 427.87535 826.3552 426.03515 832.24805 423.89844 C 837.12173 422.15029 841.46626 420.23244 845.49805 418.21094 L 845.49805 429.82227 C 845.49822 430.31118 845.69921 430.79686 846.04492 431.14258 C 846.39064 431.48829 846.87632 431.68928 847.36523 431.68945 L 859.27344 431.68945 C 859.76236 431.68929 860.24803 431.48829 860.59375 431.14258 C 860.93947 430.79686 861.14047 430.31118 861.14062 429.82227 L 861.14062 340.32617 C 861.14062 331.93258 859.31335 324.67853 855.58398 318.70508 L 855.58008 318.69922 L 855.58008 318.69727 A 0.074773494 0.074773494 0 0 0 855.57812 318.69141 C 851.89411 312.73278 846.81456 307.86677 840.43359 304.14453 C 834.07956 300.43801 826.64367 297.78184 818.1582 296.14844 L 818.15625 296.14844 C 809.69928 294.45718 800.61225 293.61523 790.90234 293.61523 z M 390.19141 294.57617 C 378.48842 294.57617 367.74176 296.26789 357.98242 299.67383 C 348.24464 303.07225 339.82963 307.86413 332.78516 314.05273 C 325.74223 320.23998 320.22693 327.67039 316.28125 336.28516 A 0.074773494 0.074773494 0 0 0 316.28125 336.28906 C 316.28041 336.29115 316.27818 336.29283 316.27734 336.29492 C 316.27734 336.29492 316.27539 336.29688 316.27539 336.29688 C 316.27539 336.29688 316.27539 336.29883 316.27539 336.29883 C 312.38489 344.93866 310.44727 354.43365 310.44727 364.7168 C 310.44727 375.32602 312.48328 384.96444 316.58203 393.55859 C 320.66886 402.12775 326.49224 409.47355 333.99609 415.5293 A 0.074773494 0.074773494 0 0 0 334 415.53125 C 334.00473 415.53466 334.00891 415.53765 334.01367 415.54102 C 341.5837 421.53043 350.70366 426.11334 361.32617 429.30664 C 371.96469 432.50471 383.83167 434.08986 396.91406 434.08984 C 402.5172 434.08984 407.64548 433.89774 412.31055 433.50977 L 412.33594 433.50781 C 417.058 433.18355 421.68312 432.63428 426.2168 431.85742 C 430.75104 431.14448 435.34601 430.20499 440.00195 429.04102 A 0.074773494 0.074773494 0 0 0 440.00391 429.04102 C 440.01138 429.03903 440.01794 429.03724 440.02539 429.03516 C 444.66444 427.81096 449.68139 426.36439 455.08008 424.69336 C 455.45768 424.57611 455.79676 424.33397 456.03125 424.01562 C 456.26574 423.69729 456.39453 423.30358 456.39453 422.9082 L 456.39453 408.98438 C 456.39463 408.6528 456.30495 408.32089 456.13672 408.03516 C 455.96849 407.74943 455.72358 407.51039 455.43359 407.34961 C 455.14361 407.18883 454.80998 407.10656 454.47852 407.11523 C 454.14705 407.12391 453.81829 407.22466 453.53711 407.40039 C 451.1278 408.90621 447.93653 410.43038 443.99414 411.93359 C 440.0404 413.37694 435.66288 414.70353 430.86328 415.9043 C 430.86204 415.90461 430.86061 415.90399 430.85938 415.9043 C 430.85721 415.90452 430.85364 415.90427 430.85352 415.9043 C 426.0552 417.04053 421.02876 417.96002 415.77539 418.65625 C 410.5404 419.35005 405.37412 419.69727 400.27344 419.69727 C 388.24092 419.69727 377.74417 418.49087 368.79102 416.11328 A 0.074773494 0.074773494 0 0 0 368.78711 416.11133 L 368.78125 416.11133 L 368.77734 416.10938 C 359.87047 413.66163 352.41257 410.19724 346.35938 405.75 C 340.36458 401.29878 335.76834 395.93221 332.50781 389.5957 C 329.51967 383.78856 327.66031 377.29299 326.82812 370.13672 L 465.37891 370.13672 C 465.86783 370.13655 466.3535 369.93556 466.69922 369.58984 C 467.04494 369.24413 467.24593 368.75845 467.24609 368.26953 L 467.24609 365.29297 C 467.24609 354.47339 465.5502 344.69519 462.125 335.99805 L 462.12305 335.99609 A 0.074773494 0.074773494 0 0 0 462.12305 335.99414 A 0.074773494 0.074773494 0 0 0 462.12305 335.99219 C 458.70009 327.23972 453.6677 319.75405 447.06055 313.60938 C 440.44926 307.46089 432.33026 302.75011 422.77148 299.47656 C 413.19371 296.1965 402.32895 294.57617 390.19141 294.57617 z M 160.5 296.01562 C 160.01108 296.01579 159.52541 296.21678 159.17969 296.5625 C 158.83397 296.90822 158.63298 297.39389 158.63281 297.88281 L 158.63281 429.82227 C 158.63298 430.31118 158.83397 430.79686 159.17969 431.14258 C 159.52541 431.48829 160.01108 431.68929 160.5 431.68945 L 172.50391 431.68945 C 172.99282 431.68929 173.4785 431.48829 173.82422 431.14258 C 174.16994 430.79686 174.37092 430.31118 174.37109 429.82227 L 174.37109 380.98828 L 231.75 380.98828 C 242.09513 380.98828 250.96625 380.11949 258.39258 378.3457 L 258.39844 378.34375 C 258.40042 378.34342 258.40232 378.34409 258.4043 378.34375 A 0.074773494 0.074773494 0 0 0 258.41016 378.3418 C 265.88954 376.50476 272.08328 373.79839 276.94727 370.15039 C 281.79028 366.51813 285.38002 361.97894 287.62109 356.625 L 287.62305 356.62109 A 0.074773494 0.074773494 0 0 0 287.625 356.61719 C 289.91694 351.29013 291.04102 345.20403 291.04102 338.40625 C 291.04102 331.60917 289.91646 325.52392 287.625 320.19727 C 285.38312 314.83655 281.7865 310.32227 276.93359 306.75 C 272.0714 303.17088 265.88415 300.53101 258.41406 298.75977 C 250.98054 296.91782 242.10171 296.01562 231.75 296.01562 L 160.5 296.01562 z M 671.44922 296.01562 C 670.9603 296.01579 670.47462 296.21678 670.12891 296.5625 C 669.78319 296.90822 669.5822 297.39389 669.58203 297.88281 L 669.58203 429.82227 C 669.5822 430.31118 669.78319 430.79686 670.12891 431.14258 C 670.47462 431.48829 670.9603 431.68929 671.44922 431.68945 L 683.45117 431.68945 C 683.94009 431.68929 684.42577 431.48829 684.77148 431.14258 C 685.1172 430.79686 685.31819 430.31118 685.31836 429.82227 L 685.31836 297.88281 C 685.31819 297.39389 685.1172 296.90822 684.77148 296.5625 C 684.42577 296.21678 683.94009 296.01579 683.45117 296.01562 L 671.44922 296.01562 z M 902.58008 296.01562 C 902.09116 296.01579 901.60548 296.21678 901.25977 296.5625 C 900.91405 296.90822 900.71306 297.39389 900.71289 297.88281 L 900.71289 386.51562 C 900.71289 394.13858 901.52161 400.77546 903.1875 406.43945 C 904.87654 412.18224 907.89933 417.03246 912.19141 420.84766 C 912.19949 420.85451 912.2086 420.86243 912.2168 420.86914 C 916.58833 424.62523 922.3374 427.35648 929.39062 429.13672 C 929.39739 429.13879 929.40336 429.14058 929.41016 429.14258 A 0.074773494 0.074773494 0 0 0 929.41406 429.14258 C 936.53838 430.8577 945.40564 431.68945 956.06641 431.68945 L 1018.0977 431.68945 C 1018.5866 431.68927 1019.0723 431.48829 1019.418 431.14258 C 1019.7637 430.79686 1019.9647 430.31117 1019.9648 429.82227 L 1019.9648 418.20312 C 1019.9647 417.71422 1019.7637 417.22853 1019.418 416.88281 C 1019.0723 416.5371 1018.5866 416.33612 1018.0977 416.33594 L 958.4668 416.33594 C 948.95305 416.33594 941.35044 415.69357 935.73633 414.46094 L 935.73438 414.46094 C 930.18517 413.16407 926.07275 411.20811 923.32227 408.74414 C 920.53609 406.24819 918.73175 403.12371 917.8457 399.16602 C 916.92577 395.05698 916.45117 390.0642 916.45117 384.21094 L 916.45117 297.88281 C 916.45101 297.39389 916.25002 296.90822 915.9043 296.5625 C 915.55858 296.21678 915.0729 296.01579 914.58398 296.01562 L 902.58008 296.01562 z M 390 308.96875 C 400.79024 308.96875 409.96175 310.33043 417.51367 312.99219 A 0.074773494 0.074773494 0 0 0 417.51758 312.99414 C 425.19837 315.67929 431.42699 319.2709 436.26367 323.74023 C 436.26571 323.74227 436.26749 323.74407 436.26953 323.74609 A 0.074773494 0.074773494 0 0 0 436.27148 323.74805 C 441.20617 328.25095 444.8748 333.42376 447.33008 339.31641 A 0.074773494 0.074773494 0 0 0 447.33398 339.32227 C 447.33478 339.32416 447.33514 339.32623 447.33594 339.32812 C 447.33594 339.32812 447.33594 339.33008 447.33594 339.33008 C 447.33659 339.33164 447.33919 339.33242 447.33984 339.33398 C 449.55773 344.60531 450.83117 350.1579 451.41016 355.93555 L 326.99609 355.93555 C 327.92364 350.14405 329.57646 344.5926 332.22852 339.34375 A 0.074773494 0.074773494 0 0 0 332.23047 339.33789 L 332.23242 339.33398 C 332.2331 339.33195 332.23369 339.33016 332.23438 339.32812 C 335.19551 333.40896 339.25468 328.24125 344.45117 323.78711 A 0.074773494 0.074773494 0 0 0 344.45508 323.7832 C 344.45644 323.78185 344.45763 323.78065 344.45898 323.7793 L 344.46289 323.77539 C 349.64132 319.27609 355.98664 315.67623 363.54492 312.99023 C 371.04449 310.3251 379.85963 308.96875 390 308.96875 z M 174.37109 310.98633 L 224.06836 310.98633 C 233.11042 310.98633 240.89089 311.33865 247.39453 312.0332 A 0.074773494 0.074773494 0 0 0 247.40234 312.0332 C 253.90481 312.72146 259.17183 314.09734 263.18945 316.07617 A 0.074773494 0.074773494 0 0 0 263.19141 316.07812 C 263.20153 316.08297 263.21049 316.08714 263.2207 316.0918 C 267.26927 317.997 270.11361 320.63491 271.96875 324.11328 C 271.97149 324.11937 271.97376 324.1248 271.97656 324.13086 A 0.074773494 0.074773494 0 0 0 271.97852 324.13477 C 273.88389 327.59908 274.91797 332.34224 274.91797 338.40625 C 274.91797 343.59095 274.10684 347.76865 272.59961 350.95703 C 272.5959 350.96433 272.59345 350.97116 272.58984 350.97852 A 0.074773494 0.074773494 0 0 0 272.58789 350.98047 C 271.09431 354.26637 269.10596 356.85418 266.59961 358.83594 C 266.59489 358.83945 266.59062 358.8441 266.58594 358.84766 A 0.074773494 0.074773494 0 0 0 266.58398 358.84766 C 264.09475 360.86275 261.18896 362.37881 257.81445 363.4043 C 254.40983 364.3939 250.81069 365.11026 247.01367 365.54688 C 243.17723 365.92378 239.27565 366.11505 235.30859 366.11523 C 231.34055 366.05137 227.59252 366.01953 224.06836 366.01953 L 174.37109 366.01953 L 174.37109 310.98633 z M 845.49805 360.28711 L 845.49805 401.60938 C 843.54561 403.03442 841.28835 404.46325 838.46484 405.875 C 838.46077 405.87702 838.45719 405.87881 838.45312 405.88086 C 835.39409 407.44159 831.97238 408.91638 828.19141 410.30273 C 824.40877 411.6897 820.36347 412.98512 816.0625 414.1875 C 811.75461 415.32782 807.38339 416.34079 802.94727 417.22852 C 798.51804 418.05104 794.05865 418.71787 789.56641 419.22461 C 785.14319 419.66693 780.85052 419.88867 776.69141 419.88867 C 769.6208 419.88867 763.27231 419.34974 757.65234 418.28906 L 757.65039 418.28906 C 752.04549 417.1671 747.33546 415.55761 743.51562 413.5 L 743.50977 413.49609 A 0.074773494 0.074773494 0 0 0 743.50586 413.49414 C 739.69364 411.37514 736.84278 408.8268 734.85352 405.84766 C 732.94344 402.89263 731.98633 399.54712 731.98633 395.63672 C 731.98633 390.97321 733.86059 386.90212 737.92773 383.07422 C 742.03093 379.27205 748.71754 375.75582 757.9707 372.73438 C 767.22624 369.71217 779.23293 367.13366 793.94922 365.03125 C 808.22707 363.00035 825.50848 361.42973 845.49805 360.28711 z "
     d="m 59.673828,293.81836 c -4.726809,0 -9.514642,0.22891 -14.365234,0.68164 -4.861112,0.45371 -9.56891,1.19794 -14.117188,2.23633 0.0043,-0.001 0.0086,-0.002 0.01367,-0.004 0.0033,-0.001 0.02363,-0.01 0.02344,-0.01 0,0 -0.0079,-0.0159 -0.0098,-0.0195 a 0.20387848,0.20387848 0 0 1 -0.04102,0.0371 c -4.505689,0.98003 -8.763838,2.3505 -12.765625,4.11915 -1.61e-4,-6e-5 -0.0043,0.002 -0.0039,0.002 -0.0013,5.8e-4 -0.0026,0.001 -0.0039,0.002 2.22e-4,-1.9e-4 -0.002,0.002 -0.002,0.002 a 0.20387848,0.20387848 0 0 1 -0.02148,0.0117 c -4.033259,1.72152 -7.60143,3.88598 -10.677734,6.49414 -0.00384,0.003 -0.00783,0.006 -0.011719,0.01 -3.0445451,2.63861 -5.4618181,5.80408 -7.22070308,9.45312 a 0.20387848,0.20387848 0 0 1 0,0.002 c -0.00407,0.008 -0.001528,0.003 -0.001953,0.004 -1.7889624,3.6484 -2.6660156,7.81905 -2.6660156,12.44336 0,4.73181 1.0929837,8.99892 3.3066406,12.66797 -0.00206,-0.003 0.00284,0.005 0.00195,0.004 4.581e-4,7.6e-4 0.0015,0.001 0.00195,0.002 -5.301e-4,-0.001 -0.00355,-0.007 0.00977,0.0117 a 0.20387848,0.20387848 0 0 1 0.00781,0.01 c 2.2297428,3.58001 5.1941639,6.74285 8.8613281,9.47656 a 0.20387848,0.20387848 0 0 1 0.00195,0 c -9.765e-4,-7.3e-4 0.00826,0.006 0.027343,0.0195 3.706917,2.64781 7.98563,4.94777 12.826172,6.91016 a 0.20387848,0.20387848 0 0 1 0.0078,0.006 c 7.75e-4,3.2e-4 0.0012,0.002 0.002,0.002 4.854963,1.94189 9.962378,3.68591 15.324219,5.23633 5.339256,1.54387 10.837123,2.98788 16.49414,4.33789 a 0.20387848,0.20387848 0 0 1 0.0039,0.002 c -2.35e-4,-6e-5 0.0076,0.003 0.01172,0.004 a 0.20387848,0.20387848 0 0 1 0.0098,0 c 5.675325,1.27533 11.155948,2.61569 16.445312,4.01757 l 0.0078,0.002 c 0.0078,0.002 0.02633,0.007 0.01172,0.004 a 0.20387848,0.20387848 0 0 1 0.01172,0.002 c 5.271022,1.33374 10.248795,2.79121 14.9375,4.375 0.0019,4.8e-4 0.0028,0.001 0.0059,0.002 5.74e-4,1.9e-4 0.0014,-1.9e-4 0.002,0 a 0.20387848,0.20387848 0 0 1 0.0078,0.002 0.20387848,0.20387848 0 0 1 0.0059,0.002 c 4.706023,1.56905 8.75611,3.38062 12.148437,5.41601 a 0.20387848,0.20387848 0 0 1 0.0039,0.004 c 0.0064,0.004 0.01302,0.008 0.01953,0.0117 a 0.20387848,0.20387848 0 0 1 0.0059,0.002 c 3.413457,1.95055 6.030347,4.20036 7.917967,6.72852 a 0.20387848,0.20387848 0 0 1 0.0176,0.0195 c 0.001,0.001 0.003,0.002 0.004,0.004 -0.001,-0.002 -0.001,-0.004 0.0137,0.0137 a 0.20387848,0.20387848 0 0 1 0.006,0.006 c 1.89455,2.46962 2.82226,5.26451 2.82226,8.58985 0,4.22369 -1.17874,7.62252 -3.54882,10.45508 a 0.20387848,0.20387848 0 0 1 -0.004,0.004 c -0.004,0.005 -0.007,0.009 -0.0117,0.0137 l -0.01,0.01 a 0.20387848,0.20387848 0 0 1 -0.004,0.004 c -2.35375,2.87669 -5.720025,5.28374 -10.191408,7.18359 a 0.20387848,0.20387848 0 0 1 -0.002,0.002 c -4.507801,1.85098 -9.905873,3.22886 -16.195313,4.10938 -6.312532,0.88375 -13.214884,1.32812 -20.703125,1.32812 -10.589752,0 -20.690869,-0.95399 -30.30664,-2.85156 a 0.20387848,0.20387848 0 0 1 -0.0039,0 c -9.478705,-1.8834 -18.4767425,-5.36049 -27.0273434,-10.45312 -0.2500803,-0.14885 -0.54398012,-0.23146 -0.83593748,-0.23438 -0.29225896,-0.003 -0.58490785,0.073 -0.83789062,0.2168 -0.25311344,0.14388 -0.4704354,0.35719 -0.6171875,0.60937 -0.1466976,0.25209 -0.2265269,0.54653 -0.2265625,0.83789 v 14.69141 c 7.16e-5,0.34375 0.1110961,0.69009 0.3105469,0.96875 0.19937392,0.27855 0.49289156,0.49451 0.81835935,0.60547 8.52894975,2.90758 17.46960725,5.20272 26.82421925,6.88086 a 0.20387848,0.20387848 0 0 1 0.01758,0.002 c 9.462036,1.68503 19.960477,2.52148 31.5,2.52148 5.035312,0 10.132916,-0.22496 15.292968,-0.67578 l 0.02344,-0.002 a 0.20387848,0.20387848 0 0 1 0.002,0 c 5.245414,-0.38958 10.305363,-1.10191 15.175781,-2.14062 l 0.0078,-0.002 a 0.20387848,0.20387848 0 0 1 0.0059,-0.002 c 4.950045,-1.04293 9.587068,-2.44907 13.908202,-4.2168 v 0.002 l 0.004,-0.002 a 0.20387848,0.20387848 0 0 1 0.004,-0.002 l 0.004,-0.002 a 0.20387848,0.20387848 0 0 1 0.006,-0.002 c 4.41597,-1.84587 8.27187,-4.13509 11.54883,-6.875 a 0.20387848,0.20387848 0 0 1 0.0156,-0.01 0.20387848,0.20387848 0 0 1 0.006,-0.004 0.20387848,0.20387848 0 0 1 0.0176,-0.0117 c -0.006,0.003 -0.0103,0.006 -0.0156,0.01 3.35698,-2.82152 6.02939,-6.17028 7.98437,-10.00977 l -0.002,0.006 c -0.001,0.003 -9.7e-4,0.006 -0.002,0.01 a 0.20387848,0.20387848 0 0 1 0.01,-0.0274 0.20387848,0.20387848 0 0 1 0.004,-0.0117 c 2e-5,-4e-5 0.003,-0.003 0.004,-0.004 1.9855,-3.97445 2.95703,-8.56435 2.95703,-13.69922 0,-4.79713 -1.12769,-9.12842 -3.40429,-12.85937 a 0.20387848,0.20387848 0 0 1 -0.002,-0.002 c -2.16325,-3.6478 -5.13074,-6.87812 -8.85156,-9.67383 a 0.20387848,0.20387848 0 0 1 -0.006,-0.004 0.20387848,0.20387848 0 0 1 -0.0254,-0.0156 c -3.6431,-2.77973 -7.91615,-5.17746 -12.810546,-7.20312 a 0.20387848,0.20387848 0 0 1 -0.0098,-0.004 l -0.0039,-0.002 c -5.47e-4,-2.4e-4 -0.0014,2.3e-4 -0.002,0 -8.77e-4,-4.1e-4 -0.0011,-0.002 -0.002,-0.002 a 0.20387848,0.20387848 0 0 1 -0.0039,-0.002 c -4.78539,-2.06855 -9.885997,-3.90681 -15.298828,-5.51953 h 0.01953 0.0078 a 0.20387848,0.20387848 0 0 1 -0.08398,-0.0195 l 0.02344,0.0117 c -5.341717,-1.67305 -10.873717,-3.21824 -16.595703,-4.63281 a 0.20387848,0.20387848 0 0 1 -0.002,-0.002 h -0.002 l -16.490235,-4.12304 h 0.02539 a 0.20387848,0.20387848 0 0 1 -0.05273,-0.006 c -5.276677,-1.39908 -10.295882,-2.86276 -15.058594,-4.38672 a 0.20387848,0.20387848 0 0 1 -0.0059,-0.002 0.20387848,0.20387848 0 0 1 -0.002,0 c -4.648945,-1.57202 -8.71185,-3.29537 -12.1875,-5.15625 l 0.0918,0.0215 A 0.20387848,0.20387848 0 0 1 24.125,342.76367 c 0.0011,0.001 8.09e-4,0.003 0.002,0.004 l 0.04492,0.0332 c -3.363211,-1.8348 -6.000236,-3.91352 -7.951172,-6.21094 l -0.002,-0.002 a 0.20387848,0.20387848 0 0 1 -0.01367,-0.0156 c -1.810948,-2.21196 -2.6875,-4.69076 -2.6875,-7.67188 0,-3.65928 0.975259,-6.67598 2.923828,-9.25977 a 0.20387848,0.20387848 0 0 1 0.0039,-0.004 c 2.039061,-2.61613 4.987997,-4.82581 8.949219,-6.59375 a 0.20387848,0.20387848 0 0 0 -0.02148,0.0156 0.20387848,0.20387848 0 0 1 0.02539,-0.0176 c 0.0014,-5e-4 0.01701,-0.009 0.0039,-0.002 a 0.20387848,0.20387848 0 0 1 0.0098,-0.006 c 4.042092,-1.83697 9.015548,-3.21285 14.916016,-4.09179 5.980966,-0.8814 12.8164,-1.32813 20.498047,-1.32813 6.325835,0 12.063333,0.38281 17.210937,1.13477 a 0.20387848,0.20387848 0 0 1 0.0078,0 0.20387848,0.20387848 0 0 1 0.0098,0 c 0.0085,8.3e-4 0.01536,0.002 0.01758,0.002 a 0.20387848,0.20387848 0 0 1 0.0098,0.002 c 5.194651,0.69687 9.833489,1.58121 13.914063,2.64844 l -0.04687,-0.006 a 0.20387848,0.20387848 0 0 1 0.09375,0.0234 c -0.0022,-0.001 -0.0036,-0.003 -0.0059,-0.004 l -0.03516,-0.0117 c 4.157607,1.07091 7.822107,2.29352 10.990237,3.66016 a 0.20387848,0.20387848 0 0 1 0.002,0 c 0.008,0.004 0.0148,0.008 0.0234,0.0117 v -0.002 c 3.23935,1.33382 6.09166,2.60175 8.54883,3.79882 0.25164,0.12241 0.53497,0.18083 0.81445,0.16602 0.27952,-0.0148 0.55984,-0.10381 0.79687,-0.25195 0.23718,-0.14823 0.43635,-0.35854 0.57227,-0.60352 0.13578,-0.24471 0.20874,-0.52474 0.20898,-0.80469 v -13.82812 c -1.7e-4,-0.36352 -0.12575,-0.72838 -0.34765,-1.01563 -0.22209,-0.28748 -0.54342,-0.50194 -0.89453,-0.59375 -4.17058,-1.09076 -8.30882,-2.11539 -12.41602,-3.07812 a 0.20387848,0.20387848 0 0 1 -0.0117,-0.004 l -0.006,-0.002 c -4.058961,-0.96611 -8.24478,-1.80335 -12.554684,-2.51172 a 0.20387848,0.20387848 0 0 1 -0.0078,0 C 83.44793,295.56693 78.988022,294.95214 74.337891,294.5 c -4.605504,-0.45407 -9.49381,-0.68164 -14.664063,-0.68164 z m 24.935547,67.30078 c 0.02718,0.008 -0.02568,-0.003 0,0 z M 575.13477,293.81836 c -7.96449,0 -15.58405,0.64845 -22.85743,1.94726 -7.27701,1.29947 -14.08412,3.25186 -20.41211,5.86133 -6.3325,2.61135 -12.09324,5.8834 -17.26953,9.81446 a 0.20387848,0.20387848 0 0 1 -0.002,0.002 0.20387848,0.20387848 0 0 1 -0.01,0.006 c -5.18043,3.87204 -9.65016,8.41081 -13.39257,13.59766 -8.9e-4,0.001 -0.003,0.003 -0.004,0.004 -7.4e-4,0.001 -0.001,0.003 -0.002,0.004 a 0.20387848,0.20387848 0 0 1 -0.004,0.004 c -3.68987,5.20592 -6.55202,11.06746 -8.58398,17.55664 a 0.20387848,0.20387848 0 0 1 -0.004,0.0117 c 0.004,-0.0114 0.003,-0.008 -0.004,0.01 -1.8e-4,6e-4 1.8e-4,0.001 0,0.002 -1.97179,6.51068 -2.94921,13.61923 -2.94922,21.31055 0,7.69132 0.97743,14.79988 2.94922,21.31055 a 0.20387848,0.20387848 0 0 1 0,0.002 c 7.8e-4,0.003 0.001,0.005 0.002,0.008 0.001,0.003 0.006,0.0131 0.004,0.008 a 0.20387848,0.20387848 0 0 1 0.004,0.0117 c 2.03213,6.48774 4.89445,12.34783 8.58398,17.55274 a 0.20387848,0.20387848 0 0 1 0.004,0.004 0.20387848,0.20387848 0 0 1 0.002,0.004 0.20387848,0.20387848 0 0 1 0.002,0.002 c -3.6e-4,-3.7e-4 0.005,0.009 0.002,0.004 3.74481,5.18947 8.21752,9.75895 13.40039,13.69531 a 0.20387848,0.20387848 0 0 1 0.008,0.006 c 0.0106,0.009 -0.003,-3.1e-4 0.002,0.004 0.002,0.001 0.004,0.002 0.006,0.004 -0.003,-0.003 0.008,0.007 0.002,0.002 5.17253,3.86196 10.92813,7.09654 17.2539,9.70507 6.32799,2.6095 13.1351,4.56186 20.41211,5.86133 a 0.20387848,0.20387848 0 0 1 0.002,0 c 7.33512,1.29825 14.95454,1.94532 22.85547,1.94531 6.39346,0 12.31766,-0.32144 17.77148,-0.9707 5.4354,-0.64707 10.61905,-1.55461 15.55078,-2.72265 4.91646,-1.16442 9.6425,-2.556 14.17969,-4.17579 a 0.20387848,0.20387848 0 0 1 0.0156,-0.004 l 0.004,-0.002 0.004,-0.002 c 0.001,-4e-4 0.003,4e-4 0.004,0 4.56946,-1.60937 9.1683,-3.37921 13.79883,-5.30859 0.3005,-0.12527 0.56394,-0.34282 0.74414,-0.61328 0.1801,-0.27031 0.27943,-0.59825 0.2793,-0.92383 v -14.30859 c -1.7e-4,-0.29832 -0.0836,-0.59616 -0.23633,-0.85157 -0.1529,-0.25569 -0.37663,-0.47232 -0.63867,-0.61328 -0.26218,-0.14103 -0.56559,-0.21061 -0.86328,-0.19726 -0.29764,0.0133 -0.59526,0.1095 -0.84375,0.27343 -3.3262,2.19646 -7.04288,4.30889 -11.14844,6.33008 a 0.20387848,0.20387848 0 0 1 -0.002,0 c -4.01027,1.94172 -8.4393,3.67015 -13.29493,5.1836 -0.002,8e-4 -0.004,-5.8e-4 -0.006,0 a 0.20387848,0.20387848 0 0 1 -0.006,0.002 c -2.4e-4,9e-5 -0.002,0.002 -0.002,0.002 -0.001,3.7e-4 -0.003,-3.7e-4 -0.004,0 -4.77613,1.50779 -9.94009,2.70758 -15.49805,3.5918 a 0.20387848,0.20387848 0 0 1 -0.002,0 c -0.002,3e-4 -0.004,-3.1e-4 -0.006,0 -5.47085,0.88004 -11.30369,1.32422 -17.4961,1.32422 -12.54452,0 -23.36118,-1.334 -32.44336,-3.96094 l -0.01,-0.002 a 0.20387848,0.20387848 0 0 1 -0.10742,-0.0586 c 0.001,0.001 8.1e-4,0.003 0.002,0.004 l 0.084,0.0488 c -9.10225,-2.7007 -16.56558,-6.47915 -22.4375,-11.29688 0.004,0.003 0.0353,0.0196 0.0352,0.0195 0,0 0.006,-0.016 0.008,-0.0195 a 0.20387848,0.20387848 0 0 1 -0.0684,-0.0215 H 522.5 l -0.002,-0.002 c -5.80407,-4.88608 -10.09994,-10.7193 -12.93946,-17.5625 0.002,0.004 0.01,0.014 0.01,0.0137 -2.2e-4,-3.5e-4 0.0294,0.0372 0.0293,0.0371 -8e-5,-7e-5 0.0586,0.0391 0.0586,0.0391 0,0 0.082,-0.1875 0.082,-0.1875 -2e-5,5e-5 0.20313,0.008 0.20313,0.008 -1e-5,1.6e-4 -0.004,-0.0491 -0.004,-0.0488 5e-5,2.5e-4 -0.006,-0.0237 -0.006,-0.0234 l -0.39648,0.0664 0.0137,0.0684 v 0.006 c -2.78635,-6.87935 -4.19141,-14.62248 -4.19141,-23.26953 0,-8.64297 1.40374,-16.38284 4.1875,-23.25977 l 0.002,-0.006 a 0.20387848,0.20387848 0 0 1 0.0449,-0.0742 l -0.0293,0.041 c -0.001,0.002 -0.003,0.004 -0.004,0.006 2.84253,-6.91366 7.13856,-12.74414 12.94532,-17.56641 0.001,-0.001 0.003,-0.003 0.004,-0.004 a 0.20387848,0.20387848 0 0 1 0.0508,-0.0371 l -0.0137,0.006 c 5.87202,-4.8764 13.3334,-8.68277 22.43164,-11.38086 9.08447,-2.69403 19.90805,-4.06055 32.46289,-4.06055 6.19417,0 11.99567,0.44406 17.40235,1.32422 5.43235,0.88435 10.50393,2.08306 15.21875,3.5918 a 0.20387848,0.20387848 0 0 1 0.002,0 c 5.9e-4,2e-4 0.001,0.002 0.002,0.002 0.001,3.4e-4 0.002,-4.8e-4 0.004,0 a 0.20387848,0.20387848 0 0 1 0.008,0.004 c 4.78807,1.51261 9.21991,3.27118 13.29492,5.27734 4.11217,2.02445 7.96877,4.17241 11.56446,6.44336 0.24954,0.1573 0.54313,0.24721 0.83789,0.25586 0.29513,0.009 0.59322,-0.0627 0.85156,-0.20508 0.25834,-0.14239 0.47888,-0.35761 0.62891,-0.61133 0.15005,-0.25376 0.23214,-0.55062 0.23242,-0.8457 v -14.40234 c 1.3e-4,-0.32559 -0.0992,-0.65353 -0.2793,-0.92383 -0.1802,-0.27047 -0.44365,-0.48803 -0.74414,-0.61328 -4.63264,-1.93027 -9.23372,-3.66827 -13.80664,-5.21485 -6.6e-4,-1.9e-4 -0.001,2e-4 -0.002,0 a 0.20387848,0.20387848 0 0 1 -0.006,-0.002 c -6.5e-4,-2.3e-4 -0.001,2.4e-4 -0.002,0 a 0.20387848,0.20387848 0 0 1 -0.0176,-0.006 c -4.53496,-1.61865 -9.25812,-3.01003 -14.17188,-4.17383 -4.93173,-1.16803 -10.11538,-2.07558 -15.55078,-2.72265 -5.45344,-0.64923 -11.37767,-0.97266 -17.77148,-0.97266 z m 215.76757,0 c -11.41876,0 -22.23933,0.90376 -32.45898,2.71484 -10.09131,1.73573 -19.61011,3.79578 -28.55859,6.17774 -0.34989,0.0932 -0.67003,0.30685 -0.89063,0.59375 -0.22044,0.28671 -0.34555,0.65159 -0.3457,1.01367 v 14.01953 c 10e-5,0.26888 0.0663,0.53829 0.1914,0.77539 0.12511,0.23721 0.31155,0.44586 0.53321,0.59766 0.22165,0.15178 0.48143,0.24837 0.74804,0.27929 0.26683,0.0309 0.54288,-0.003 0.79297,-0.0996 4.27209,-1.65784 8.51097,-3.22379 12.7168,-4.68945 4.16754,-1.45232 8.52916,-2.71512 13.08594,-3.79101 l -0.002,0.002 c 0.007,-0.002 0.0149,-0.004 0.0215,-0.006 a 0.20387848,0.20387848 0 0 1 0.002,0 c 4.53371,-1.13344 9.4294,-2.01953 14.68164,-2.65234 5.23352,-0.63054 11.05579,-0.94727 17.4668,-0.94727 4.74954,0 9.4677,0.22093 14.15234,0.66406 0.008,6.8e-4 0.0137,0.001 0.0215,0.002 a 0.20387848,0.20387848 0 0 1 0.002,0 c 4.72787,0.37823 9.19285,1.03781 13.39648,1.97851 a 0.20387848,0.20387848 0 0 1 0.0117,0.004 c 0.003,5.8e-4 0.005,0.001 0.008,0.002 l -0.0293,-0.004 a 0.20387848,0.20387848 0 0 1 0.0352,0.006 0.20387848,0.20387848 0 0 1 0.01,0.002 c 4.25104,0.93915 8.17698,2.1864 11.77734,3.73828 0.007,0.003 0.0129,0.005 0.0195,0.008 a 0.20387848,0.20387848 0 0 1 0.002,0.002 c 3.56792,1.47639 6.64079,3.33857 9.24805,5.58204 0.005,0.004 0.0101,0.007 0.0156,0.0117 a 0.20387848,0.20387848 0 0 1 0.004,0.004 c 2.5834,2.16332 4.57181,4.68935 6.00586,7.61719 1.41038,2.87953 2.13476,6.23025 2.13476,10.11914 v 8.34961 a 0.20387848,0.20387848 0 0 1 -0.1914,0.20312 c -11.7065,0.68827 -22.97351,1.52415 -33.64258,2.56055 -11.16847,1.02725 -21.57666,2.37532 -31.22266,4.04687 a 0.20387848,0.20387848 0 0 1 -0.006,0 c 0.001,-2.4e-4 0.002,-9.3e-4 0.006,-0.002 0.004,-0.001 0.0295,-0.01 0.0293,-0.01 -6e-5,2e-5 0.0274,-0.0156 0.0273,-0.0156 0,0 0.008,-0.006 0.008,-0.006 0,0 0.008,-0.004 0.008,-0.004 0,0 -0.10372,-0.13501 -0.11719,-0.15235 l 0.0312,0.18945 v 0.002 c -9.65706,1.60997 -18.42636,3.60966 -26.31445,6.00195 -7.84713,2.3353 -14.60114,5.22991 -20.25586,8.71289 a 0.20387848,0.20387848 0 0 1 -0.006,0.002 c -0.001,7.5e-4 -0.003,0.001 -0.004,0.002 a 0.20387848,0.20387848 0 0 1 -0.004,0.002 c -5.6693,3.42983 -10.12037,7.53235 -13.28126,12.30469 -0.002,0.002 -0.002,0.005 -0.004,0.008 a 0.20387848,0.20387848 0 0 1 -0.008,0.0156 c -3.12357,4.75805 -4.68555,10.29693 -4.68555,16.45898 0,6.19115 1.34251,11.74935 4.05469,16.56445 4.3e-4,7.7e-4 0.002,0.001 0.002,0.002 0.001,0.002 4.9e-4,0.003 0.002,0.006 a 0.20387848,0.20387848 0 0 1 0.004,0.004 c 2.69839,4.72162 6.55049,8.69931 11.48242,11.89844 0.0346,0.0219 0.0388,0.0253 0.0137,0.01 a 0.20387848,0.20387848 0 0 1 0.002,0.002 c 4.9296,3.13053 10.87058,5.4619 17.79687,7.03125 l -0.0273,-0.002 a 0.20387848,0.20387848 0 0 1 0.0351,0.004 0.20387848,0.20387848 0 0 1 0.002,0 0.20387848,0.20387848 0 0 1 0.01,0.002 0.20387848,0.20387848 0 0 1 0.008,0 c 6.99169,1.56715 14.82125,2.34375 23.49415,2.34374 6.6637,0 13.45201,-0.41984 20.36523,-1.25976 6.90711,-0.83918 13.62556,-2.03528 20.15234,-3.58594 l -0.01,0.004 a 0.20387848,0.20387848 0 0 1 0.0117,-0.004 0.20387848,0.20387848 0 0 1 0.0156,-0.006 c 6.57965,-1.54876 12.81055,-3.38575 18.69531,-5.51953 a 0.20387848,0.20387848 0 0 1 0.002,0 c 4.86532,-1.74515 9.20104,-3.65938 13.22656,-5.67773 a 0.20387848,0.20387848 0 0 1 0.29492,0.18164 v 11.61133 c 1.5e-4,0.43308 0.18214,0.86962 0.48828,1.17578 0.30616,0.30614 0.7427,0.48813 1.17578,0.48828 h 11.90821 c 0.43309,-1.4e-4 0.86962,-0.18214 1.17578,-0.48828 0.30615,-0.30616 0.48815,-0.74271 0.48828,-1.17578 v -89.4961 c 0,-8.36121 -1.81998,-15.573 -5.52344,-21.50781 l -0.004,-0.006 a 0.20387848,0.20387848 0 0 1 -0.0332,-0.11133 l 0.008,0.0527 c 9.8e-4,0.003 6.8e-4,0.006 0.002,0.01 l 0.0176,0.0352 c -3.66604,-5.92956 -8.71937,-10.77151 -15.07422,-14.47852 -6.33038,-3.69272 -13.74288,-6.3428 -22.20899,-7.97265 a 0.20387848,0.20387848 0 0 1 -0.004,0 c -8.44219,-1.68831 -17.51672,-2.5293 -27.21485,-2.5293 z m 22.55274,135.41797 c -0.0186,0.003 0.0685,-0.0314 0,0 z M 390.19141,294.7793 c -11.68335,0 -22.40737,1.69037 -32.14258,5.08789 -9.71599,3.39081 -18.10571,8.16798 -25.12891,14.33789 -7.01525,6.16293 -12.50795,13.56108 -16.4414,22.14062 v -0.008 a 0.20387848,0.20387848 0 0 1 -0.004,0.0176 c -0.002,0.005 -0.006,0.009 -0.008,0.0137 l 0.0117,-0.0527 v -0.0176 a 0.20387848,0.20387848 0 0 1 -0.0176,0.0801 0.20387848,0.20387848 0 0 1 0,0.002 0.20387848,0.20387848 0 0 1 -0.0391,0.0586 l 0.0273,-0.0273 c -3.8693,8.60426 -5.79883,18.05857 -5.79883,28.30469 0,10.58314 2.03069,20.18953 6.11523,28.7539 4.07215,8.53838 9.87307,15.85657 17.34961,21.89258 a 0.20387848,0.20387848 0 0 1 0.004,0.002 c 0.002,0.002 0.004,0.004 0.006,0.006 0.002,0.001 0.004,0.003 0.006,0.004 a 0.20387848,0.20387848 0 0 1 0.01,0.006 c 7.54724,5.97137 16.64233,10.54339 27.24415,13.73047 10.61628,3.19138 22.46337,4.77541 35.52929,4.77539 5.59848,0 10.7206,-0.19267 15.37891,-0.58008 a 0.20387848,0.20387848 0 0 1 0.002,0 l 0.0254,-0.002 a 0.20387848,0.20387848 0 0 1 0.002,0 c 4.71543,-0.32381 9.33267,-0.87278 13.85937,-1.64844 a 0.20387848,0.20387848 0 0 1 0.004,0 c 4.52736,-0.71186 9.1159,-1.65014 13.76562,-2.8125 h 0.002 c 0.006,-0.002 0.0114,-0.004 0.0176,-0.006 a 0.20387848,0.20387848 0 0 1 0.002,0 c 4.6358,-1.22334 9.65051,-2.66954 15.04687,-4.33984 0.3347,-0.10393 0.63955,-0.32098 0.84766,-0.60352 0.20802,-0.2824 0.32422,-0.63522 0.32422,-0.98633 v -13.92382 c 9e-5,-0.29479 -0.0812,-0.59216 -0.23047,-0.84571 -0.14956,-0.25402 -0.36934,-0.46849 -0.62696,-0.61133 -0.25777,-0.14292 -0.55542,-0.21668 -0.8496,-0.20898 -0.29374,0.008 -0.58953,0.0994 -0.83985,0.25586 -2.42549,1.51593 -5.62709,3.04427 -9.57812,4.55078 a 0.20387848,0.20387848 0 0 1 -0.002,0 c -3.96147,1.44617 -8.34676,2.7743 -13.15234,3.97656 -10e-6,10e-6 -0.002,-1e-5 -0.002,0 a 0.20387848,0.20387848 0 0 1 -0.002,0 c -0.001,1.2e-4 -0.005,0.002 -0.008,0.002 a 0.20387848,0.20387848 0 0 1 -0.0195,0.004 c -4.79964,1.13583 -9.82532,2.05385 -15.07813,2.75 -5.24352,0.69493 -10.41936,1.04297 -15.52929,1.04297 -12.04615,0 -22.56034,-1.2065 -31.53516,-3.58984 a 0.20387848,0.20387848 0 0 1 -0.0293,-0.0117 l 0.0312,0.006 a 0.20387848,0.20387848 0 0 1 -0.0371,-0.008 0.20387848,0.20387848 0 0 1 -0.004,-0.002 0.20387848,0.20387848 0 0 1 -0.008,-0.002 l 0.01,0.004 0.0215,0.01 c -8.92623,-2.45307 -16.40751,-5.92794 -22.48438,-10.39258 -6.01772,-4.46824 -10.63734,-9.86043 -13.91211,-16.22461 -3.00069,-5.83154 -4.86659,-12.35248 -5.70117,-19.52929 a 0.20387848,0.20387848 0 0 1 0.20312,-0.22657 h 138.55079 c 0.43309,-1.5e-4 0.86962,-0.18212 1.17578,-0.48828 0.30615,-0.30614 0.48814,-0.74268 0.48828,-1.17578 v -2.97656 c 0,-10.79828 -1.69291,-20.55069 -5.10742,-29.2207 l 0.041,0.0645 a 0.20387848,0.20387848 0 0 1 -0.0566,-0.14063 l 0.0137,0.0703 c -3.41263,-8.72607 -8.42722,-16.185 -15.01171,-22.3086 -6.58837,-6.12717 -14.68126,-10.8223 -24.2168,-14.08789 -9.55253,-3.27142 -20.39428,-4.89062 -32.51367,-4.89062 z M 160.5,296.21875 c -0.4331,1.5e-4 -0.86963,0.18213 -1.17578,0.48828 -0.30616,0.30616 -0.48813,0.74268 -0.48828,1.17578 v 131.93946 c 1.5e-4,0.43308 0.18213,0.86962 0.48828,1.17578 0.30615,0.30614 0.74269,0.48814 1.17578,0.48828 h 12.00391 c 0.43308,-1.4e-4 0.86962,-0.18214 1.17578,-0.48828 0.30615,-0.30615 0.48813,-0.7427 0.48828,-1.17578 v -48.83399 a 0.20387848,0.20387848 0 0 1 0.20312,-0.20312 H 231.75 c 10.33372,0 19.19042,-0.86991 26.5957,-2.63868 a 0.20387848,0.20387848 0 0 1 0.0156,-0.002 c 0.003,-6.5e-4 0.005,-0.001 0.008,-0.002 7.45609,-1.83216 13.62055,-4.53034 18.45508,-8.15625 4.81647,-3.61236 8.3824,-8.11918 10.60937,-13.43945 a 0.20387848,0.20387848 0 0 1 0.004,-0.01 l 0.002,-0.004 v -0.002 l 0.002,-0.002 a 0.20387848,0.20387848 0 0 1 0.002,-0.004 c 2.27578,-5.29467 3.39453,-11.34891 3.39453,-18.11914 0,-6.77459 -1.12163,-12.83179 -3.40039,-18.12891 a 0.20387848,0.20387848 0 0 1 0,-0.002 c -2.22765,-5.3267 -5.7994,-9.80916 -10.625,-13.36133 -4.83424,-3.55854 -10.99488,-6.1885 -18.44531,-7.95508 a 0.20387848,0.20387848 0 0 1 -0.002,-0.002 c -7.41182,-1.83657 -16.27536,-2.73828 -26.61523,-2.73828 z m 97.8457,81.92773 -0.0117,0.004 a 0.20387848,0.20387848 0 0 1 0.004,0 0.20387848,0.20387848 0 0 1 0.008,-0.004 z m 413.10352,-81.92773 c -0.4331,1.5e-4 -0.86964,0.18213 -1.17578,0.48828 -0.30616,0.30616 -0.48813,0.74268 -0.48828,1.17578 v 131.93946 c 1.5e-4,0.43308 0.18213,0.86962 0.48828,1.17578 0.30614,0.30614 0.74269,0.48814 1.17578,0.48828 h 12.00195 c 0.43309,-1.4e-4 0.86964,-0.18214 1.17578,-0.48828 0.30616,-0.30616 0.48813,-0.7427 0.48828,-1.17578 V 297.88281 c -1.5e-4,-0.4331 -0.18212,-0.86962 -0.48828,-1.17578 -0.30614,-0.30615 -0.74268,-0.48813 -1.17578,-0.48828 z m 231.13086,0 c -0.4331,1.5e-4 -0.86964,0.18213 -1.17578,0.48828 -0.30616,0.30616 -0.48813,0.74268 -0.48828,1.17578 v 88.63281 c 0,7.60855 0.80803,14.22743 2.46679,19.86719 1.67923,5.70944 4.67988,10.52272 8.94336,14.3125 0.007,0.006 0.0157,0.0125 0.0195,0.0156 a 0.20387848,0.20387848 0 0 1 0.004,0.004 c 4.34157,3.73035 10.06106,6.45005 17.0918,8.22461 a 0.20387848,0.20387848 0 0 1 0.01,0.002 c 0.004,0.001 0.006,0.003 0.01,0.004 0.002,6.3e-4 0.004,0.001 0.006,0.002 7.10049,1.70867 15.95235,2.53906 26.59961,2.53906 h 62.03129 c 0.433,-1.6e-4 0.8696,-0.18215 1.1757,-0.48828 0.3062,-0.30616 0.4882,-0.74273 0.4883,-1.17578 v -11.61915 c -10e-5,-0.43305 -0.1821,-0.86962 -0.4883,-1.17578 -0.3061,-0.30613 -0.7427,-0.48812 -1.1757,-0.48828 h -59.6309 c -9.51999,0 -17.13083,-0.64194 -22.76758,-1.8789 a 0.20387848,0.20387848 0 0 1 -0.0117,0 c -5.57171,-1.30213 -9.71619,-3.2681 -12.50195,-5.76368 -2.81658,-2.52318 -4.64512,-5.6926 -5.53907,-9.68554 -0.92435,-4.12881 -1.39843,-9.13572 -1.39843,-15 v -86.32813 c -1.4e-4,-0.43309 -0.18213,-0.86962 -0.48828,-1.17578 -0.30616,-0.30615 -0.74269,-0.48813 -1.17579,-0.48828 z M 31.125,296.33789 c -0.01107,0.001 -0.01107,0.0117 0,0.0156 -9.6e-5,-0.002 0,-0.0156 0,-0.0156 z M 390,308.76562 c 10.80739,0 20.00187,1.36345 27.58203,4.03516 a 0.20387848,0.20387848 0 0 1 0.002,0 l 0.0195,0.008 c 7.69259,2.69175 13.9423,6.29358 18.79882,10.78125 a 0.20387848,0.20387848 0 0 1 0.006,0.006 c 5.8e-4,5.8e-4 -4.8e-4,0.001 0,0.002 l 0.002,0.002 c 4.94556,4.51333 8.62742,9.70249 11.09375,15.60937 a 0.20387848,0.20387848 0 0 1 0.008,0.0156 0.20387848,0.20387848 0 0 1 0,0.002 0.20387848,0.20387848 0 0 1 0.01,0.0156 c 0.0131,0.0309 0.0134,0.033 0.002,0.006 2.3e-4,3.9e-4 -1.9e-4,0.002 0,0.002 8e-4,0.001 0.004,0.006 0.004,0.006 2.22692,5.29279 3.50529,10.86589 4.08594,16.66016 a 0.20387848,0.20387848 0 0 1 -0.20312,0.22265 H 326.99609 a 0.20387848,0.20387848 0 0 1 -0.20117,-0.23633 c 0.92897,-5.80037 2.58615,-11.36362 5.24219,-16.62695 a 0.20387848,0.20387848 0 0 1 0.002,-0.006 0.20387848,0.20387848 0 0 1 0.002,-0.006 0.20387848,0.20387848 0 0 1 0.004,-0.006 0.20387848,0.20387848 0 0 1 0,-0.002 v -0.002 a 0.20387848,0.20387848 0 0 1 0.002,-0.002 l 0.002,-0.006 0.002,-0.004 a 0.20387848,0.20387848 0 0 1 0.002,-0.006 c 2.97084,-5.93856 7.04415,-11.12355 12.25391,-15.5918 0.001,-0.001 8.3e-4,-0.003 0.002,-0.004 a 0.20387848,0.20387848 0 0 1 0.002,-0.002 c 6.9e-4,-6.8e-4 0.002,-0.002 0.004,-0.004 l 0.004,-0.004 a 0.20387848,0.20387848 0 0 1 0.0117,-0.01 c 5.20003,-4.51806 11.56797,-8.12907 19.14648,-10.82226 7.5265,-2.6747 16.36489,-4.03321 26.52344,-4.03321 z m -215.62891,2.01758 h 49.69727 c 9.04222,0 16.82472,0.35206 23.33594,1.04688 a 0.20387848,0.20387848 0 0 1 0.0195,0 c 6.51929,0.69004 11.80809,2.06901 15.85547,4.0625 a 0.20387848,0.20387848 0 0 1 0.008,0.006 c 0.006,0.003 0.0111,0.005 0.0176,0.008 a 0.20387848,0.20387848 0 0 1 0.002,0.002 c 4.08088,1.92041 6.96608,4.59243 8.8418,8.10938 a 0.20387848,0.20387848 0 0 1 0.006,0.0117 c 0.002,0.005 0.003,0.007 0.004,0.01 1.92744,3.50566 2.96289,8.2813 2.96289,14.36719 0,5.20596 -0.81333,9.41364 -2.33789,12.63867 a 0.20387848,0.20387848 0 0 1 -0.002,0.004 c 0.003,-0.006 0.002,1.4e-4 -0.008,0.0195 a 0.20387848,0.20387848 0 0 1 -0.006,0.008 c -1.50449,3.30545 -3.51121,5.91962 -6.04102,7.91992 a 0.20387848,0.20387848 0 0 1 -0.006,0.004 c 0.011,-0.008 -0.002,7.3e-4 -0.008,0.006 -0.004,0.003 0.005,-0.003 -0.004,0.004 -4e-4,3.3e-4 -0.002,-3.3e-4 -0.002,0 -2.50946,2.03024 -5.4396,3.55831 -8.83398,4.58984 a 0.20387848,0.20387848 0 0 1 -0.002,0 c -3.41627,0.99299 -7.02634,1.71255 -10.83398,2.15039 a 0.20387848,0.20387848 0 0 1 -0.004,0 c -3.84314,0.37756 -7.751,0.56818 -11.72461,0.56836 a 0.20387848,0.20387848 0 0 1 -0.004,0 c -3.96707,-0.0638 -7.7134,-0.0957 -11.23633,-0.0957 h -49.69727 a 0.20387848,0.20387848 0 0 1 -0.20312,-0.20313 v -55.0332 a 0.20387848,0.20387848 0 0 1 0.20312,-0.20313 z m 142.08985,25.59961 c -2.5e-4,5.5e-4 2.4e-4,0.001 0,0.002 -0.005,0.0102 -0.0104,0.0187 -0.0137,0.0234 0.004,-0.007 0.009,-0.0164 0.0137,-0.0254 z m 464.11523,15.91797 c -0.0101,0.11991 0.009,0.0684 0.0195,0.18945 0.007,-0.0238 0.0508,-0.18164 0.0508,-0.18164 7e-5,2e-5 -0.0568,-0.008 -0.0566,-0.008 1.6e-4,0 -0.0108,-2.3e-4 -0.0137,0 z m -712.720701,4.1211 c 0.0013,0.001 0.04427,0.026 0.06445,0.0371 a 0.20387848,0.20387848 0 0 1 -0.06445,-0.0371 z m -44.994141,1.97265 a 0.20387848,0.20387848 0 0 1 0.05273,0.0332 l -0.01953,-0.0156 c -0.0033,-0.002 -0.0063,-0.004 -0.0098,-0.006 z m 822.625002,1.68945 a 0.20387848,0.20387848 0 0 1 0.21484,0.20313 v 41.32227 a 0.20387848,0.20387848 0 0 1 -0.082,0.16406 c -1.96046,1.43089 -4.22865,2.86628 -7.0625,4.2832 a 0.20387848,0.20387848 0 0 1 -0.002,0 c -0.004,0.002 -0.006,0.004 -0.01,0.006 -3.06754,1.56507 -6.49568,3.04289 -10.2832,4.43164 -3.78823,1.38902 -7.83892,2.68695 -12.14453,3.89063 a 0.20387848,0.20387848 0 0 1 -0.002,0 c -4.31199,1.1414 -8.68879,2.15444 -13.1289,3.04296 a 0.20387848,0.20387848 0 0 1 -0.002,0.002 c -4.43394,0.82339 -8.89743,1.49076 -13.39454,1.99804 a 0.20387848,0.20387848 0 0 1 -0.004,0 c -4.4295,0.44295 -8.72818,0.66407 -12.89453,0.66407 -7.08097,0 -13.44108,-0.53803 -19.07618,-1.60157 l 0.0332,0.002 a 0.20387848,0.20387848 0 0 1 -0.0371,-0.004 c -5.61941,-1.12486 -10.34932,-2.73924 -14.19141,-4.80859 a 0.20387848,0.20387848 0 0 1 -0.002,0 0.20387848,0.20387848 0 0 1 -0.004,-0.004 l -0.008,-0.004 c -0.001,-7.3e-4 -0.003,-0.001 -0.004,-0.002 l -0.002,-0.002 -0.004,-0.002 c -3.83001,-2.13063 -6.70529,-4.69848 -8.71289,-7.70508 a 0.20387848,0.20387848 0 0 1 -0.002,-0.002 c -1.9313,-2.98786 -2.89844,-6.3786 -2.89844,-10.32226 0,-4.71813 1.907,-8.85502 6.00391,-12.71094 a 0.20387848,0.20387848 0 0 1 0.002,-0.002 c 4.13823,-3.83463 10.84917,-7.35588 20.11914,-10.38281 9.27247,-3.02774 21.2877,-5.60743 36.01172,-7.71094 14.28605,-2.03207 31.5729,-3.60325 51.56641,-4.7461 z m -322.66992,44.46875 a 0.20387848,0.20387848 0 0 1 0.004,0.0371 c 0.001,-5.7e-4 0.0117,-0.006 0.0117,-0.006 0,0 -0.004,-0.0117 -0.004,-0.0117 0,0 -0.002,-0.002 -0.002,-0.002 2e-5,4e-5 -0.006,-0.0102 -0.01,-0.0176 z m -0.23047,0.2793 c -0.0318,0.0162 -0.0144,-0.04 0.004,0 a 0.20387848,0.20387848 0 0 1 -0.004,0 z"
     transform="matrix(0.99207282,0,0,0.99207282,2.9275171,-249.96054)" />
</svg>
